# xmcd
#
# Track frame offsets: 
#        150
#        13924
#        32486
#        46969
#        59532
#        70827
#        83484
#        98367
#        113013
#        124312
#        135221
#        155339
#
# Disc length: 2272 seconds
#
# Revision: 0
# Processed by: cddbd v1.5.1PL2 Copyright (c) Steve Scherf et al.
# Submitted via: ExactAudioCopy v0.95b1
#
DISCID=8c08de0c
DTITLE=Johnny Cash - One Piece At A Time
DYEAR=1900
DGENRE=Country
TTITLE0=Let There Be Country
TTITLE1=One Piece At A Time
TTITLE2=In A Young Girl's Mind
TTITLE3=Mountain Lady
TTITLE4=Michigan City Howdy Do
TTITLE5=Sold Out Of Flagpoles
TTITLE6=Committed To Parkview
TTITLE7=Daughter Of A Railroad Man
TTITLE8=Love Has Lost Again
TTITLE9=Go On Blues
TTITLE10=In A Young Girl's Mind
TTITLE11=Committed To Parkview
EXTD=
EXTT0=
EXTT1=
EXTT2=
EXTT3=
EXTT4=
EXTT5=
EXTT6=
EXTT7=
EXTT8=
EXTT9=
EXTT10=
EXTT11=
PLAYORDER=
